HIERARCHY
ROOT Hips
{
	OFFSET -339.306915 540.749023 89.171944
	CHANNELS 6 Xposition Yposition Zposition Zrotation Yrotation Xrotation
	JOINT Spine
	{
		OFFSET 0.000000 2.080078 8.814247
		CHANNELS 6 Xposition Yposition Zposition Zrotation Yrotation Xrotation
		JOINT Spine1
		{
			OFFSET 0.000000 0.000000 8.844139
			CHANNELS 6 Xposition Yposition Zposition Zrotation Yrotation Xrotation
			JOINT Spine2
			{
				OFFSET 0.000000 0.000000 11.682266
				CHANNELS 6 Xposition Yposition Zposition Zrotation Yrotation Xrotation
				JOINT Spine3
				{
					OFFSET 0.000000 0.000000 11.746696
					CHANNELS 6 Xposition Yposition Zposition Zrotation Yrotation Xrotation
					JOINT Neck
					{
						OFFSET 0.000000 0.000000 17.658264
						CHANNELS 6 Xposition Yposition Zposition Zrotation Yrotation Xrotation
						JOINT Neck1
						{
							OFFSET 0.000000 0.000000 5.101517
							CHANNELS 6 Xposition Yposition Zposition Zrotation Yrotation Xrotation
							JOINT Head
							{
								OFFSET 0.000000 0.000000 5.101517
								CHANNELS 6 Xposition Yposition Zposition Zrotation Yrotation Xrotation
								JOINT HeadEnd
								{
									OFFSET 0.000000 0.000000 11.655090
									CHANNELS 6 Xposition Yposition Zposition Zrotation Yrotation Xrotation
									End Site
									{
										OFFSET 0.000000 0.000000 0.100006
									}
								}
							}
						}
					}
					JOINT RightShoulder
					{
						OFFSET -2.625397 0.000000 11.175217
						CHANNELS 6 Xposition Yposition Zposition Zrotation Yrotation Xrotation
						JOINT RightArm
						{
							OFFSET 0.000000 0.000000 10.434708
							CHANNELS 6 Xposition Yposition Zposition Zrotation Yrotation Xrotation
							JOINT RightForeArm
							{
								OFFSET 0.000000 0.000000 29.628418
								CHANNELS 6 Xposition Yposition Zposition Zrotation Yrotation Xrotation
								JOINT RightHand
								{
									OFFSET 0.000000 0.000000 22.857605
									CHANNELS 6 Xposition Yposition Zposition Zrotation Yrotation Xrotation
									JOINT RightHandThumb1
									{
										OFFSET -2.867310 -2.944275 3.959564
										CHANNELS 6 Xposition Yposition Zposition Zrotation Yrotation Xrotation
										JOINT RightHandThumb2
										{
											OFFSET 0.000000 0.000000 3.350403
											CHANNELS 6 Xposition Yposition Zposition Zrotation Yrotation Xrotation
											JOINT RightHandThumb3
											{
												OFFSET 0.000000 0.000000 3.756516
												CHANNELS 6 Xposition Yposition Zposition Zrotation Yrotation Xrotation
												JOINT RightHandThumb4
												{
													OFFSET 0.000000 0.000000 3.147339
													CHANNELS 6 Xposition Yposition Zposition Zrotation Yrotation Xrotation
													End Site
													{
														OFFSET 0.000000 0.000000 0.100006
													}
												}
											}
										}
									}
									JOINT RightHandIndex1
									{
										OFFSET -0.086761 -2.345276 10.030899
										CHANNELS 6 Xposition Yposition Zposition Zrotation Yrotation Xrotation
										JOINT RightHandIndex2
										{
											OFFSET 0.000000 0.000000 4.061096
											CHANNELS 6 Xposition Yposition Zposition Zrotation Yrotation Xrotation
											JOINT RightHandIndex3
											{
												OFFSET 0.000000 0.000000 3.248871
												CHANNELS 6 Xposition Yposition Zposition Zrotation Yrotation Xrotation
												JOINT RightHandIndex4
												{
													OFFSET 0.000000 0.000000 2.639709
													CHANNELS 6 Xposition Yposition Zposition Zrotation Yrotation Xrotation
													End Site
													{
														OFFSET 0.000000 0.000000 0.100006
													}
												}
											}
										}
									}
									JOINT RightHandMiddle1
									{
										OFFSET 0.104095 -0.006775 9.502945
										CHANNELS 6 Xposition Yposition Zposition Zrotation Yrotation Xrotation
										JOINT RightHandMiddle2
										{
											OFFSET 0.000000 0.000000 4.568726
											CHANNELS 6 Xposition Yposition Zposition Zrotation Yrotation Xrotation
											JOINT RightHandMiddle3
											{
												OFFSET 0.000000 0.000000 3.654984
												CHANNELS 6 Xposition Yposition Zposition Zrotation Yrotation Xrotation
												JOINT RightHandMiddle4
												{
													OFFSET 0.000000 0.000000 2.741241
													CHANNELS 6 Xposition Yposition Zposition Zrotation Yrotation Xrotation
													End Site
													{
														OFFSET 0.000000 0.000000 0.100006
													}
												}
											}
										}
									}
									JOINT RightHandRing1
									{
										OFFSET 0.086761 2.267456 8.921707
										CHANNELS 6 Xposition Yposition Zposition Zrotation Yrotation Xrotation
										JOINT RightHandRing2
										{
											OFFSET 0.000000 0.000000 4.061096
											CHANNELS 6 Xposition Yposition Zposition Zrotation Yrotation Xrotation
											JOINT RightHandRing3
											{
												OFFSET 0.000000 0.000000 3.654984
												CHANNELS 6 Xposition Yposition Zposition Zrotation Yrotation Xrotation
												JOINT RightHandRing4
												{
													OFFSET 0.000000 0.000000 2.741241
													CHANNELS 6 Xposition Yposition Zposition Zrotation Yrotation Xrotation
													End Site
													{
														OFFSET 0.000000 0.000000 0.100006
													}
												}
											}
										}
									}
									JOINT RightHandPinky1
									{
										OFFSET -0.173492 4.467224 7.976990
										CHANNELS 6 Xposition Yposition Zposition Zrotation Yrotation Xrotation
										JOINT RightHandPinky2
										{
											OFFSET 0.000000 0.000000 3.350403
											CHANNELS 6 Xposition Yposition Zposition Zrotation Yrotation Xrotation
											JOINT RightHandPinky3
											{
												OFFSET 0.000000 0.000000 2.842758
												CHANNELS 6 Xposition Yposition Zposition Zrotation Yrotation Xrotation
												JOINT RightHandPinky4
												{
													OFFSET 0.000000 0.000000 2.639709
													CHANNELS 6 Xposition Yposition Zposition Zrotation Yrotation Xrotation
													End Site
													{
														OFFSET 0.000000 0.000000 0.100006
													}
												}
											}
										}
									}
									JOINT RightForeArmEnd
									{
										OFFSET 0.000000 0.000000 0.000000
										CHANNELS 6 Xposition Yposition Zposition Zrotation Yrotation Xrotation
										End Site
										{
											OFFSET 0.000000 0.000000 0.100006
										}
									}
								}
								JOINT RightArmEnd
								{
									OFFSET 0.000000 0.000000 0.000000
									CHANNELS 6 Xposition Yposition Zposition Zrotation Yrotation Xrotation
									End Site
									{
										OFFSET 0.000000 0.000000 0.100006
									}
								}
							}
						}
					}
					JOINT LeftShoulder
					{
						OFFSET 2.625397 0.000000 11.175217
						CHANNELS 6 Xposition Yposition Zposition Zrotation Yrotation Xrotation
						JOINT LeftArm
						{
							OFFSET 0.000000 0.000000 10.813629
							CHANNELS 6 Xposition Yposition Zposition Zrotation Yrotation Xrotation
							JOINT LeftForeArm
							{
								OFFSET 0.000000 0.000000 28.724777
								CHANNELS 6 Xposition Yposition Zposition Zrotation Yrotation Xrotation
								JOINT LeftHand
								{
									OFFSET 0.644379 0.328857 25.716171
									CHANNELS 6 Xposition Yposition Zposition Zrotation Yrotation Xrotation
									JOINT LeftHandThumb1
									{
										OFFSET 2.867310 -2.944275 3.959564
										CHANNELS 6 Xposition Yposition Zposition Zrotation Yrotation Xrotation
										JOINT LeftHandThumb2
										{
											OFFSET 0.000000 0.000000 3.350403
											CHANNELS 6 Xposition Yposition Zposition Zrotation Yrotation Xrotation
											JOINT LeftHandThumb3
											{
												OFFSET 0.000000 0.000000 3.756516
												CHANNELS 6 Xposition Yposition Zposition Zrotation Yrotation Xrotation
												JOINT LeftHandThumb4
												{
													OFFSET 0.000000 0.000000 3.100006
													CHANNELS 6 Xposition Yposition Zposition Zrotation Yrotation Xrotation
													End Site
													{
														OFFSET 0.000000 0.000000 0.100006
													}
												}
											}
										}
									}
									JOINT LeftHandIndex1
									{
										OFFSET 0.086761 -2.345276 10.030899
										CHANNELS 6 Xposition Yposition Zposition Zrotation Yrotation Xrotation
										JOINT LeftHandIndex2
										{
											OFFSET 0.000000 0.000000 4.061096
											CHANNELS 6 Xposition Yposition Zposition Zrotation Yrotation Xrotation
											JOINT LeftHandIndex3
											{
												OFFSET 0.000000 0.000000 3.248871
												CHANNELS 6 Xposition Yposition Zposition Zrotation Yrotation Xrotation
												JOINT LeftHandIndex4
												{
													OFFSET 0.000000 0.000000 2.639709
													CHANNELS 6 Xposition Yposition Zposition Zrotation Yrotation Xrotation
													End Site
													{
														OFFSET 0.000000 0.000000 0.100006
													}
												}
											}
										}
									}
									JOINT LeftHandMiddle1
									{
										OFFSET -0.104095 -0.006775 9.502945
										CHANNELS 6 Xposition Yposition Zposition Zrotation Yrotation Xrotation
										JOINT LeftHandMiddle2
										{
											OFFSET 0.000000 0.000000 4.568726
											CHANNELS 6 Xposition Yposition Zposition Zrotation Yrotation Xrotation
											JOINT LeftHandMiddle3
											{
												OFFSET 0.000000 0.000000 3.654984
												CHANNELS 6 Xposition Yposition Zposition Zrotation Yrotation Xrotation
												JOINT LeftHandMiddle4
												{
													OFFSET 0.000000 0.000000 2.741241
													CHANNELS 6 Xposition Yposition Zposition Zrotation Yrotation Xrotation
													End Site
													{
														OFFSET 0.000000 0.000000 0.100006
													}
												}
											}
										}
									}
									JOINT LeftHandRing1
									{
										OFFSET -0.086761 2.267456 8.921707
										CHANNELS 6 Xposition Yposition Zposition Zrotation Yrotation Xrotation
										JOINT LeftHandRing2
										{
											OFFSET 0.000000 0.000000 4.061096
											CHANNELS 6 Xposition Yposition Zposition Zrotation Yrotation Xrotation
											JOINT LeftHandRing3
											{
												OFFSET 0.000000 0.000000 3.654984
												CHANNELS 6 Xposition Yposition Zposition Zrotation Yrotation Xrotation
												JOINT LeftHandRing4
												{
													OFFSET 0.000000 0.000000 2.741241
													CHANNELS 6 Xposition Yposition Zposition Zrotation Yrotation Xrotation
													End Site
													{
														OFFSET 0.000000 0.000000 0.100006
													}
												}
											}
										}
									}
									JOINT LeftHandPinky1
									{
										OFFSET 0.173492 4.467224 7.976990
										CHANNELS 6 Xposition Yposition Zposition Zrotation Yrotation Xrotation
										JOINT LeftHandPinky2
										{
											OFFSET 0.000000 0.000000 3.350403
											CHANNELS 6 Xposition Yposition Zposition Zrotation Yrotation Xrotation
											JOINT LeftHandPinky3
											{
												OFFSET 0.000000 0.000000 2.842758
												CHANNELS 6 Xposition Yposition Zposition Zrotation Yrotation Xrotation
												JOINT LeftHandPinky4
												{
													OFFSET 0.000000 0.000000 2.639709
													CHANNELS 6 Xposition Yposition Zposition Zrotation Yrotation Xrotation
													End Site
													{
														OFFSET 0.000000 0.000000 0.100006
													}
												}
											}
										}
									}
									JOINT LeftForeArmEnd
									{
										OFFSET 0.000000 0.000000 0.000000
										CHANNELS 6 Xposition Yposition Zposition Zrotation Yrotation Xrotation
										End Site
										{
											OFFSET 0.000000 0.000000 0.100006
										}
									}
								}
								JOINT LeftArmEnd
								{
									OFFSET 0.000000 0.000000 0.000000
									CHANNELS 6 Xposition Yposition Zposition Zrotation Yrotation Xrotation
									End Site
									{
										OFFSET 0.000000 0.000000 0.100006
									}
								}
							}
						}
					}
				}
			}
		}
	}
	JOINT RightUpLeg
	{
		OFFSET -11.289948 0.000000 0.000000
		CHANNELS 6 Xposition Yposition Zposition Zrotation Yrotation Xrotation
		JOINT RightLeg
		{
			OFFSET 0.000000 0.000000 -38.200329
			CHANNELS 6 Xposition Yposition Zposition Zrotation Yrotation Xrotation
			JOINT RightFoot
			{
				OFFSET 0.000000 0.000000 -39.900856
				CHANNELS 6 Xposition Yposition Zposition Zrotation Yrotation Xrotation
				JOINT RightToeBase
				{
					OFFSET 0.000000 -15.261658 0.000001
					CHANNELS 6 Xposition Yposition Zposition Zrotation Yrotation Xrotation
					JOINT RightToeBaseEnd
					{
						OFFSET 0.000000 -7.370728 0.000001
						CHANNELS 6 Xposition Yposition Zposition Zrotation Yrotation Xrotation
						End Site
						{
							OFFSET 0.000000 0.000000 0.100000
						}
					}
				}
				JOINT RightLegEnd
				{
					OFFSET 0.000000 0.000000 0.000000
					CHANNELS 6 Xposition Yposition Zposition Zrotation Yrotation Xrotation
					End Site
					{
						OFFSET 0.000000 0.000000 0.100000
					}
				}
			}
			JOINT RightUpLegEnd
			{
				OFFSET 0.000000 0.000000 0.000000
				CHANNELS 6 Xposition Yposition Zposition Zrotation Yrotation Xrotation
				End Site
				{
					OFFSET 0.000000 0.000000 0.099998
				}
			}
		}
	}
	JOINT LeftUpLeg
	{
		OFFSET 11.315674 0.000000 0.000000
		CHANNELS 6 Xposition Yposition Zposition Zrotation Yrotation Xrotation
		JOINT LeftLeg
		{
			OFFSET 0.000000 0.000000 -38.200329
			CHANNELS 6 Xposition Yposition Zposition Zrotation Yrotation Xrotation
			JOINT LeftFoot
			{
				OFFSET 0.000000 0.000000 -39.900856
				CHANNELS 6 Xposition Yposition Zposition Zrotation Yrotation Xrotation
				JOINT LeftToeBase
				{
					OFFSET 0.000000 -15.261658 0.000001
					CHANNELS 6 Xposition Yposition Zposition Zrotation Yrotation Xrotation
					JOINT LeftToeBaseEnd
					{
						OFFSET 0.000000 -7.539978 0.000001
						CHANNELS 6 Xposition Yposition Zposition Zrotation Yrotation Xrotation
						End Site
						{
							OFFSET 0.000000 0.000000 0.100000
						}
					}
				}
				JOINT LeftLegEnd
				{
					OFFSET 0.000000 0.000000 0.000000
					CHANNELS 6 Xposition Yposition Zposition Zrotation Yrotation Xrotation
					End Site
					{
						OFFSET 0.000000 0.000000 0.100000
					}
				}
			}
			JOINT LeftUpLegEnd
			{
				OFFSET 0.000000 0.000000 0.000000
				CHANNELS 6 Xposition Yposition Zposition Zrotation Yrotation Xrotation
				End Site
				{
					OFFSET 0.000000 0.000000 0.099998
				}
			}
		}
	}
}
MOTION
Frames: 2
Frame Time: 0.016667
6.684937 -59.230896 86.579651 0.523444 6.710961 -12.657711 -0.000008 2.080074 8.814243 -0.385166 -2.894012 7.210177 0.000009 -0.000022 8.844154 -0.570996 -1.885332 1.344501 -0.000014 -0.000005 11.682281 -2.141769 -5.324290 10.386240 -0.000005 0.000005 11.746698 -0.187573 -5.051582 4.926232 -0.000001 0.000027 17.658283 3.192909 4.672041 -1.131923 -0.000010 0.000002 5.101524 2.191843 1.443895 -6.418181 -0.000010 0.000031 5.101554 0.731274 0.853916 -11.727629 -0.000003 -0.000003 11.655060 0.000000 -0.000000 0.000002 -2.625406 0.000011 11.175227 11.845813 -89.420427 -1.323760 -0.000031 0.000021 10.434715 -49.468372 -44.578087 48.321051 -0.000005 -0.000011 29.628405 8.562752 0.289911 28.538122 -0.000006 -0.000074 22.857592 25.286509 -0.935060 -7.632138 -2.867313 -2.944290 3.959564 31.542234 -18.150172 50.178480 0.000000 -0.000015 3.350430 -14.636535 9.151840 -26.138058 0.000000 -0.000034 3.756535 -9.712257 7.081440 -17.867946 0.000002 -0.000005 3.147340 0.000000 0.000000 -0.000000 -0.086781 -2.345279 10.030903 5.126927 -20.824299 -5.588071 0.000008 -0.000006 4.061100 -0.211034 -15.078659 -2.170454 0.000003 0.000017 3.248875 0.288708 -15.078667 -2.170244 -0.000012 0.000004 2.639706 -0.000001 -0.000001 0.000000 0.104099 -0.006787 9.502974 -0.079408 -20.538457 -2.933595 -0.000010 0.000011 4.568714 -0.394935 -14.687434 -0.792474 0.000007 -0.000007 3.654973 0.110353 -14.687417 -0.793279 0.000004 0.000001 2.741244 0.000000 -0.000000 -0.000001 0.086761 2.267478 8.921722 -9.278803 -23.313534 2.175611 -0.000001 -0.000018 4.061105 0.838620 -16.622053 1.048694 0.000011 -0.000000 3.654991 -0.153814 -16.621928 1.046512 -0.000003 0.000013 2.741250 -0.000001 -0.000004 0.000002 -0.173500 4.467209 7.976990 -18.882557 -23.815239 6.780056 0.000004 0.000003 3.350435 1.475875 -17.236119 3.457310 -0.000011 0.000009 2.842787 -0.522702 -17.236122 3.456907 -0.000015 -0.000022 2.639712 0.000003 0.000000 0.000000 0.000002 -0.000008 -0.000006 0.000001 0.000000 -0.000001 0.000006 -0.000000 0.000006 0.000000 0.000001 -0.000000 2.625394 -0.000017 11.175244 -8.424718 90.009797 6.155452 0.000019 -0.000002 10.813675 65.299778 41.501350 66.767353 0.000002 0.000023 28.724777 -18.126571 0.402556 31.722551 0.644371 0.328822 25.716154 0.130228 -0.458579 -12.699997 2.867321 -2.944305 3.959587 -31.586712 17.619258 50.974525 0.000000 0.000008 3.350399 13.456726 -8.731344 -24.185229 0.000000 0.000019 3.756504 8.945724 -6.680313 -16.547334 -0.000000 -0.000023 3.100009 0.000003 0.000000 0.000000 0.086739 -2.345273 10.030855 12.089819 17.232328 3.255305 0.000003 -0.000030 4.061125 -0.306788 12.332222 1.759522 -0.000004 0.000017 3.248875 0.193105 12.329959 1.759618 0.000028 0.000001 2.639727 -0.000001 -0.000000 0.000000 -0.104088 -0.006783 9.502947 6.564535 16.111738 0.766820 0.000006 0.000030 4.568699 -0.427405 11.452334 0.611664 0.000007 -0.000046 3.654977 0.067417 11.452627 0.609126 0.000013 -0.000007 2.741263 0.000001 0.000001 -0.000001 -0.086771 2.267442 8.921705 -1.638883 16.875268 -0.506259 -0.000010 -0.000039 4.061109 0.913071 11.968192 -0.743293 0.000023 -0.000026 3.655020 -0.089736 11.968231 -0.744532 -0.000002 0.000007 2.741279 -0.000001 -0.000000 -0.000001 0.173492 4.467231 7.976988 -10.529437 16.428926 -3.147692 -0.000006 0.000065 3.350401 1.768194 11.657130 -2.297766 0.000011 -0.000022 2.842787 -0.231295 11.657185 -2.297656 0.000009 0.000001 2.639704 0.000000 -0.000004 0.000000 0.000002 0.000019 0.000030 -0.000003 0.000002 0.000002 0.000002 -0.000005 0.000027 0.000001 0.000003 -0.000001 -11.289957 0.000008 0.000004 7.766697 -12.521725 5.767821 0.000006 0.000094 -38.200325 0.163052 -0.042549 14.458862 -0.000022 0.000091 -39.900837 -7.278461 6.970011 14.495261 0.000013 -15.261641 0.000006 0.417584 -0.772548 -20.922157 0.000002 -7.370667 -0.000001 0.000000 -0.000000 0.000000 -0.000003 0.000056 -0.000003 0.000001 -0.000000 -0.000000 0.000004 -0.000004 -0.000007 0.000001 -0.000000 0.000000 11.315628 0.000068 0.000003 4.743324 -23.258725 -0.242513 -0.000032 0.000032 -38.200314 2.551962 -0.691068 15.129878 -0.000024 0.000057 -39.900864 10.503790 13.260925 25.213292 0.000011 -15.261634 0.000006 -2.401176 -2.331365 -19.699324 -0.000007 -7.539912 0.000001 -0.000001 0.000000 0.000000 -0.000006 -0.000010 0.000003 0.000002 0.000001 0.000000 -0.000024 0.000114 -0.000011 0.000001 0.000002 -0.000000 
6.706055 -59.246948 86.580795 0.846643 6.614173 -12.724187 0.000005 2.080073 8.814241 -0.410310 -2.905100 7.239066 -0.000010 0.000022 8.844148 -0.574599 -1.898805 1.424987 0.000011 -0.000004 11.682259 -2.120923 -5.238481 10.420483 0.000011 -0.000003 11.746698 -0.201375 -4.995354 4.993700 -0.000011 -0.000017 17.658306 3.249217 4.903641 -1.325081 0.000013 0.000028 5.101510 2.178627 1.490878 -6.556334 -0.000006 0.000003 5.101527 0.726133 0.885626 -11.919836 0.000005 0.000003 11.655082 -0.000000 -0.000000 -0.000001 -2.625414 -0.000004 11.175230 11.705431 -89.397436 -1.186445 -0.000015 0.000015 10.434708 -49.567673 -44.407660 48.530085 -0.000003 -0.000008 29.628448 8.541701 0.294945 28.696333 0.000010 -0.000055 22.857565 24.882997 -0.799738 -7.570475 -2.867294 -2.944260 3.959564 31.542203 -18.150171 50.178524 0.000011 0.000023 3.350430 -14.636520 9.151833 -26.138068 0.000004 -0.000015 3.756531 -9.712257 7.081439 -17.867947 -0.000002 -0.000004 3.147346 0.000000 0.000000 0.000001 -0.086746 -2.345292 10.030895 5.118735 -20.914077 -5.468416 0.000010 -0.000004 4.061102 -0.212413 -15.128695 -2.175592 0.000006 -0.000015 3.248888 0.287568 -15.128720 -2.175753 0.000003 0.000010 2.639728 -0.000001 0.000001 -0.000000 0.104093 -0.006787 9.502960 -0.094853 -20.638183 -2.776754 -0.000002 0.000056 4.568735 -0.396523 -14.751300 -0.790195 -0.000009 0.000002 3.654979 0.107572 -14.751499 -0.791120 -0.000011 -0.000000 2.741240 0.000000 0.000002 -0.000001 0.086761 2.267485 8.921707 -9.309228 -23.422092 2.407034 -0.000013 0.000006 4.061104 0.841455 -16.711528 1.051467 0.000008 0.000006 3.655007 -0.152945 -16.711255 1.050318 -0.000002 0.000012 2.741246 -0.000001 -0.000001 0.000001 -0.173492 4.467189 7.976994 -18.920696 -23.894392 7.069754 -0.000017 0.000027 3.350435 1.471365 -17.335240 3.477954 0.000018 0.000016 2.842777 -0.528980 -17.335280 3.478063 -0.000008 0.000007 2.639689 -0.000001 -0.000000 0.000001 -0.000012 -0.000009 0.000011 0.000001 -0.000001 -0.000002 -0.000011 0.000019 -0.000015 -0.000002 -0.000001 -0.000001 2.625410 0.000009 11.175236 -15.638570 89.939344 -1.065365 0.000011 -0.000013 10.813599 65.222774 41.540668 66.781266 -0.000046 0.000015 28.724752 -18.311882 0.379739 32.006560 0.644365 0.328807 25.716171 0.450779 -0.523945 -12.646337 2.867306 -2.944290 3.959579 -31.586708 17.619252 50.974528 -0.000019 0.000015 3.350426 13.456733 -8.731337 -24.185227 0.000008 -0.000023 3.756523 8.945714 -6.680307 -16.547335 0.000008 -0.000061 3.100027 0.000001 0.000000 -0.000001 0.086739 -2.345265 10.030909 12.089896 17.226656 3.198957 0.000006 -0.000000 4.061111 -0.305876 12.331489 1.758644 0.000016 -0.000002 3.248882 0.194058 12.329914 1.758805 0.000011 -0.000003 2.639704 0.000001 -0.000000 -0.000000 -0.104084 -0.006759 9.502935 6.563972 16.104961 0.709515 0.000003 -0.000012 4.568758 -0.427676 11.448763 0.613438 0.000011 -0.000001 3.655011 0.067317 11.448951 0.610436 0.000013 -0.000012 2.741249 0.000002 0.000001 -0.000002 -0.086756 2.267481 8.921743 -1.636237 16.884405 -0.566496 -0.000006 0.000023 4.061104 0.913334 11.977790 -0.745091 0.000003 0.000001 3.654960 -0.089369 11.977777 -0.746929 0.000007 -0.000021 2.741277 0.000004 -0.000002 -0.000001 0.173496 4.467249 7.976984 -10.526818 16.454945 -3.209793 0.000002 -0.000014 3.350433 1.767156 11.684161 -2.300690 -0.000005 0.000013 2.842775 -0.232685 11.684239 -2.301038 -0.000002 -0.000004 2.639704 0.000000 -0.000003 -0.000000 0.000023 -0.000004 0.000016 0.000001 0.000002 -0.000001 -0.000025 0.000008 -0.000023 -0.000002 -0.000002 -0.000001 -11.289946 0.000050 0.000004 7.589471 -12.402127 5.779711 0.000008 0.000053 -38.200340 0.166074 -0.044107 14.740551 0.000021 0.000031 -39.900833 -7.447737 6.928185 14.332600 0.000004 -15.261661 -0.000002 0.402202 -0.761377 -20.983325 -0.000000 -7.370667 0.000003 0.000000 -0.000000 0.000000 -0.000000 0.000057 -0.000001 0.000001 -0.000001 0.000000 0.000008 -0.000003 0.000004 0.000000 0.000000 -0.000001 11.315655 0.000077 -0.000004 4.537483 -23.089122 -0.176760 -0.000030 0.000025 -38.200325 2.553016 -0.688250 15.074530 -0.000027 -0.000012 -39.900864 10.413421 13.164379 25.310840 -0.000014 -15.261602 -0.000011 -2.405509 -2.316542 -19.695469 0.000007 -7.539924 0.000002 0.000001 0.000000 0.000000 0.000003 0.000001 0.000005 -0.000000 0.000002 -0.000002 -0.000009 0.000117 0.000000 0.000001 0.000001 -0.000000 
